<svg width="25" height="25" viewBox="0 0 25 25" fill="none" xmlns="http://www.w3.org/2000/svg">
<path d="M2 7H4V16H2V7Z" fill="#00B8DB"/>
<path d="M8 7H16V16H8V7Z" fill="#00B8DB"/>
<path d="M3 12H11V15H3V12Z" fill="#00B8DB"/>
<path d="M15 9H21V15H15V9Z" fill="#00B8DB"/>
<path d="M20 10H23V16H20V10Z" fill="#00B8DB"/>
<path d="M19 8H22V14H19V8Z" fill="#00B8DB"/>
<path d="M4 7H20V13H4V7Z" fill="#00B8DB"/>
<path d="M15.1042 16.4141L7.8125 16.4141" stroke="#00B8DB" stroke-width="2" stroke-linecap="round" stroke-linejoin="round"/>
<path d="M18.2318 18.5026C19.3824 18.5026 20.3151 17.5699 20.3151 16.4193C20.3151 15.2687 19.3824 14.3359 18.2318 14.3359C17.0812 14.3359 16.1484 15.2687 16.1484 16.4193C16.1484 17.5699 17.0812 18.5026 18.2318 18.5026Z" stroke="#00B8DB" stroke-width="2" stroke-linecap="round" stroke-linejoin="round"/>
<path d="M20.7227 16.4167H22.5343C22.7745 16.4167 23.0049 16.3069 23.1748 16.1116C23.3447 15.9162 23.4401 15.6513 23.4401 15.375V11.5729C23.4397 11.3365 23.3695 11.1073 23.2408 10.9229L20.0887 6.39167C20.0039 6.26967 19.8965 6.17113 19.7742 6.10333C19.6519 6.03554 19.5179 6.00022 19.3821 6H13.0234" stroke="#00B8DB" stroke-width="2" stroke-linecap="round" stroke-linejoin="round"/>
<path d="M5.73177 18.5026C6.88236 18.5026 7.8151 17.5699 7.8151 16.4193C7.8151 15.2687 6.88236 14.3359 5.73177 14.3359C4.58118 14.3359 3.64844 15.2687 3.64844 16.4193C3.64844 17.5699 4.58118 18.5026 5.73177 18.5026Z" stroke="#00B8DB" stroke-width="2" stroke-linecap="round" stroke-linejoin="round"/>
<path d="M3.64583 16.4141L1.5625 16.4141" stroke="#00B8DB" stroke-width="2" stroke-linecap="round" stroke-linejoin="round"/>
<path d="M11.9805 16.4141L8.85547 16.4141" stroke="#00B8DB" stroke-width="2" stroke-linecap="round" stroke-linejoin="round"/>
<path d="M1.5651 16.4167V7.5C1.5651 6.67157 2.23668 6 3.0651 6L13.0234 6" stroke="#00B8DB" stroke-width="2" stroke-linecap="round" stroke-linejoin="round"/>
</svg>
